<svg id="Layer_1" enable-background="new 0 0 496 496" height="512" viewBox="0 0 496 496" width="512" xmlns="http://www.w3.org/2000/svg"><path d="m412.1 417h2.9v50c0 4.42-3.58 8-8 8h-316c-4.42 0-8-3.58-8-8v-50h.9c-41.95-41.98-67.9-99.96-67.9-164 0-128.13 103.87-232 232-232s232 103.87 232 232c0 64.04-25.95 122.02-67.9 164z" fill="#e8f8fc"/><path d="m415 417v50c0 4.418-3.582 8-8 8h-316c-4.418 0-8-3.582-8-8v-50z" fill="#999"/><path d="m252.221 21.038c18.045.322 20.916 26.099 3.358 30.276-164.002 39.015-231.789 233.391-131.759 365.686h-39.92c-42.002-42.032-67.964-100.103-67.9-164.237.129-129.117 106.774-234.035 236.221-231.725z" fill="#f1fafc"/><path d="m394 202.17v83.66c0 15.56-12.61 28.17-28.17 28.17-.422 0-24.681.017-25.1-.03-1.21 11.29-6.51 21.35-14.36 28.67l11.88 74.36h-180.5c13.227-82.78 11.532-74.569 12.66-73.65-8.477-7.498-13.912-18.009-15.14-29.38-.42.047-24.678.03-25.1.03-15.56 0-28.17-12.61-28.17-28.17v-83.66c0-15.56 12.61-28.17 28.17-28.17 32.071 0 29.775-.025 29.94.05 8.63-18.35 27.28-31.05 48.89-31.05h78c21.61 0 40.26 12.7 48.89 31.05.164-.075-2.177-.05 29.94-.05 15.56 0 28.17 12.61 28.17 28.17z" fill="#ffbd7b"/><path d="m170.41 343.35c-.27-.22-.53-.46-.78-.7 0-.1-.035-.02.78.7z" fill="#ffbd7b"/><path d="m348.325 314.002c-3.726-.002-7.389-.009-7.595-.032.386-3.495.27 4.398.27-116.97 0-15.224-5.676-22.693-5-23 .111 0 5.51-.01 9.845-.001 3.355.006 6.397 2.087 7.5 5.256 1.935 5.556 2.985 11.527 2.985 17.746v109.002c0 4.419-3.585 8.002-8.005 7.999z" fill="#ffaa64"/><path d="m170.41 343.35c-.27-.22-.53-.46-.78-.7 0-.1-.035-.02.78.7z" fill="#ffbd7b"/><path d="m289.9 161.6c-12.31.02-29.24.07-52.9.07-29.82 0-54 24.19-54 54 0 121.844-.128 113.568.3 117.29 1.03 8.87-9.67 14.08-15.8 7.58-7.93-8.41-12.5-19.67-12.5-31.54 0-121.722-.353-115.186.93-122h-5.76c-15.56 0-28.17 12.61-28.17 28.17v83.82c.04 7.14-8.72 10.49-13.33 5.04-4.16-4.91-6.67-11.26-6.67-18.2v-83.66c0-15.56 12.61-28.17 28.17-28.17 32.071 0 29.775-.025 29.94.05 8.63-18.35 27.28-31.05 48.89-31.05 84.937 0 79.068-.051 81.66.12 11.8.79 11.07 18.47-.76 18.48z" fill="#ffd3a6"/><path d="m327.37 342.64 11.88 74.36h-180.5l11.88-74.36c28.492 26.585 78.37 7.984 78.37-33.64 0 41.453 49.793 60.305 78.37 33.64z" fill="#ffaa64"/><path d="m114.985 475h-23.985c-4.418 0-8-3.582-8-8v-50h39.5c0 .104-.001 50.029.001 50.132.07 4.292-3.224 7.868-7.516 7.868z" fill="#b2b2b2"/><path d="m496 253c0-137.069-110.919-248-248-248-137.068 0-248 110.919-248 248 0 63.529 23.74 123.402 67 169.519v52.481c0 8.836 7.163 16 16 16h332c8.837 0 16-7.164 16-16v-54.633c41.992-45.82 65-104.825 65-167.367zm-248-216c119.103 0 216 96.897 216 216 0 55.491-20.796 107.787-58.684 148h-53.418l-8.512-53.298c4.224-5.27 7.611-11.234 9.947-17.702h12.501c24.353 0 44.166-19.813 44.166-44.167v-83.667c0-24.353-19.813-44.166-44.167-44.166h-20.733c-12.583-18.684-33.929-31-58.1-31h-78c-24.17 0-45.517 12.316-58.1 31h-20.733c-24.354 0-44.167 19.813-44.167 44.167v83.667c0 24.353 19.813 44.166 44.167 44.166h12.501c2.336 6.468 5.723 12.432 9.947 17.702l-8.512 53.298h-53.419c-37.889-40.214-58.684-92.506-58.684-148 0-119.103 96.897-216 216-216zm-117.833 261c-6.709 0-12.167-5.458-12.167-12.167v-83.667c0-6.708 5.458-12.167 12.167-12.167h9.184c-.495 4.962-.351-1.847-.351 108h-8.833zm226.482-108h9.184c6.709 0 12.167 5.458 12.167 12.167v83.667c0 6.708-5.458 12.167-12.167 12.167h-8.833c0-109.9.142-103.062-.351-108.001zm-31.649 7v112c0 15.481-12.039 30-31 30-15.477 0-30-11.988-30-31.156l13.313-19.969c7.084-10.626-.567-24.875-13.313-24.875h-32c-12.772 0-20.384 14.269-13.313 24.875l13.313 19.969c0 19.052-14.016 31.156-31 31.156-16.542 0-30-13.458-30-30v-112c0-20.953 17.047-38 38-38h78c20.953 0 38 17.047 38 38zm-143.211 170.938c21.977 7.182 48.558 2.124 66.211-17.411 17.581 19.455 44.129 24.628 66.211 17.411l5.28 33.062h-142.983zm217.211 91.062h-300v-26h300zm-167-246v8c0 8.836-7.163 16-16 16s-16-7.164-16-16v-8c0-8.836 7.163-16 16-16s16 7.164 16 16zm64 0v8c0 8.836-7.163 16-16 16s-16-7.164-16-16v-8c0-8.836 7.163-16 16-16s16 7.164 16 16z"/></svg>