<svg id="Layer_1" height="512" viewBox="0 0 128 128" width="512" xmlns="http://www.w3.org/2000/svg" data-name="Layer 1"><path d="m121.5 84.68h-115l24.02-47.18 2.55-5 4.75-9.34c5.23-10.27 15.27-16.66 26.18-16.66a28.3 28.3 0 0 1 15.22 4.48 30.04 30.04 0 0 1 5.49 4.49c.24.25.48.5.71.75a32.171 32.171 0 0 1 4.76 6.94l4.75 9.34 2.55 5 4.01 7.88 13.45 26.41z" fill="#4482c3"/><path d="m29 89.6h70a0 0 0 0 1 0 0 16.833 16.833 0 0 1 -16.833 16.833h-36.334a16.833 16.833 0 0 1 -16.833-16.833 0 0 0 0 1 0 0z" fill="#4482c3"/><path d="m94.93 32.5h-61.86l4.75-9.34c5.23-10.27 15.27-16.66 26.18-16.66a28.3 28.3 0 0 1 15.22 4.48 31.067 31.067 0 0 1 10.96 12.18z" fill="#e8e8e8"/><path d="m6.5 84.68h115v12h-115z" fill="#3b70a8"/><path d="m114.94 71.79h-21.61v-26.41h8.16z" fill="#e8e8e8"/><path d="m13.06 71.79h21.61v-26.41h-8.16z" fill="#e8e8e8"/><circle cx="64" cy="58.589" fill="#e8e8e8" r="13.205"/><g fill="#2d1d40"><path d="m39.869 19.6a1.75 1.75 0 0 0 2.453-.327c.478-.625.986-1.238 1.511-1.821a1.75 1.75 0 1 0 -2.6-2.34c-.586.652-1.154 1.337-1.687 2.035a1.75 1.75 0 0 0 .323 2.453z"/><path d="m75.061 17.52a23.217 23.217 0 0 1 7.162 7.3 1.75 1.75 0 0 0 2.97-1.852 26.742 26.742 0 0 0 -8.255-8.4 24.435 24.435 0 0 0 -7.793-3.247 1.75 1.75 0 0 0 -.764 3.416 20.935 20.935 0 0 1 6.68 2.783z"/><path d="m123.244 84.621a1.818 1.818 0 0 0 -.018-.181 1.663 1.663 0 0 0 -.03-.174c-.011-.046-.027-.09-.042-.135a1.772 1.772 0 0 0 -.078-.2c-.007-.013-.01-.028-.016-.041l-6.553-12.871-.007-.019-8.529-16.747-16.232-31.887a33.954 33.954 0 0 0 -5.03-7.33c-.238-.259-.487-.519-.74-.782a31.879 31.879 0 0 0 -5.81-4.754 29.893 29.893 0 0 0 -34.283 1.36 1.75 1.75 0 1 0 2.1 2.8 26.39 26.39 0 0 1 30.306-1.2 28.3 28.3 0 0 1 5.168 4.225c.231.24.462.481.672.71a30.4 30.4 0 0 1 4.5 6.562l3.46 6.8h-56.162l3.46-6.8a1.75 1.75 0 1 0 -3.12-1.587l-17.874 35.106-6.886 13.524-.005.015-6.555 12.871c-.007.015-.01.03-.017.044a1.741 1.741 0 0 0 -.076.2c-.016.047-.032.093-.043.14a1.607 1.607 0 0 0 -.03.171c-.008.061-.016.122-.018.183 0 .019-.006.037-.006.056v12a1.75 1.75 0 0 0 1.75 1.75h12.012l-2.406 21.32h-1.433a1.75 1.75 0 0 0 0 3.5h6a1.75 1.75 0 1 0 0-3.5h-1.045l2.406-21.323h7.453a18.644 18.644 0 0 0 16.343 9.763h16.42v11.56h-1.25a1.75 1.75 0 0 0 0 3.5h6a1.75 1.75 0 0 0 0-3.5h-1.25v-11.56h16.42a18.495 18.495 0 0 0 16.338-9.763h7.458l2.405 21.323h-1.044a1.75 1.75 0 0 0 0 3.5h6a1.75 1.75 0 0 0 0-3.5h-1.433l-2.405-21.323h12.011a1.749 1.749 0 0 0 1.75-1.75v-12c0-.019-.005-.037-.006-.056zm-17.937-27.891 6.776 13.31h-17v-22.91h5.338zm-77.724-9.6h5.337v22.91h-17l6.317-12.407zm65.25 53.142a14.984 14.984 0 0 1 -10.663 4.418h-36.34a15.128 15.128 0 0 1 -12.216-6.263h60.786a15.069 15.069 0 0 1 -1.567 1.845zm26.917-5.345h-111.5v-8.5h71.25a1.75 1.75 0 0 0 0-3.5h-70.144l4.779-9.387h20.535a1.751 1.751 0 0 0 1.75-1.75v-26.41a1.751 1.751 0 0 0 -1.75-1.75h-5.307l4.775-9.38h59.724l4.775 9.38h-5.307a1.75 1.75 0 0 0 -1.75 1.75v26.41a1.75 1.75 0 0 0 1.75 1.75h20.535l4.779 9.387h-28.644a1.75 1.75 0 0 0 0 3.5h29.75z"/><path d="m64 43.634a14.955 14.955 0 1 0 10.574 25.53 15.142 15.142 0 0 0 1.285-1.464 1.75 1.75 0 0 0 -2.773-2.136 11.726 11.726 0 0 1 -.986 1.122 11.454 11.454 0 1 1 3.333-7.378 1.749 1.749 0 0 0 3.492.22 14.955 14.955 0 0 0 -14.925-15.894z"/></g></svg>